<?xml version="1.0" standalone="no"?>
<!DOCTYPE svg PUBLIC "-//W3C//DTD SVG 20010904//EN"
 "http://www.w3.org/TR/2001/REC-SVG-20010904/DTD/svg10.dtd">
<svg version="1.0" xmlns="http://www.w3.org/2000/svg"
 width="1080.000000pt" height="1080.000000pt" viewBox="0 0 1080.000000 1080.000000"
 preserveAspectRatio="xMidYMid meet">

<g transform="translate(0.000000,1080.000000) scale(0.100000,-0.100000)"
fill="#000000" stroke="none">
<path d="M5344 10062 l-190 -2 0 -225 1 -225 210 0 c116 0 215 4 222 8 7 4 15
25 18 47 l7 40 -176 -3 -176 -4 0 51 0 51 135 0 135 0 0 40 0 40 -135 0 -135
0 -1 25 c-1 14 -2 35 -2 48 l-1 22 172 0 171 0 -6 40 c-3 22 -7 41 -8 43 -5 6
-56 7 -241 4z"/>
<path d="M5870 10002 c0 -43 -34 -267 -55 -368 -7 -30 -5 -31 32 -37 73 -13
68 -19 87 121 9 70 20 142 24 161 l8 35 123 -180 c68 -98 128 -183 132 -188 9
-10 99 -26 99 -17 0 28 61 383 70 405 6 16 9 30 8 31 -2 2 -29 6 -60 10 l-58
7 0 -33 c0 -34 -37 -269 -43 -275 -1 -2 -58 77 -126 176 -103 148 -129 180
-152 185 -16 3 -42 8 -59 11 l-30 6 0 -50z"/>
<path d="M4306 9942 l-69 -17 -22 -110 c-12 -60 -39 -168 -59 -239 -20 -71
-35 -131 -32 -133 2 -3 29 0 59 7 l55 11 6 47 c3 26 10 52 14 58 4 7 61 24
127 39 l120 27 40 -45 c36 -39 43 -43 70 -37 17 5 42 11 56 14 l26 6 -45 47
c-25 27 -77 86 -116 133 -39 47 -79 94 -89 105 -10 11 -30 39 -44 63 -14 23
-26 42 -26 41 -1 0 -33 -8 -71 -17z m91 -178 c24 -28 43 -55 43 -60 0 -8 -150
-46 -157 -40 -2 2 7 46 19 99 21 91 23 95 37 74 8 -12 34 -45 58 -73z"/>
<path d="M3597 9717 l-198 -81 7 -45 c4 -25 8 -47 9 -49 1 -2 18 6 36 17 41
23 269 114 274 109 2 -2 -45 -89 -105 -193 -60 -105 -110 -193 -110 -196 0 -4
6 -22 14 -41 l15 -34 78 37 c43 20 120 49 172 63 91 26 184 66 195 85 3 4 -1
29 -10 54 l-15 46 -57 -35 c-64 -38 -260 -119 -268 -111 -6 6 3 23 129 248 73
131 76 137 65 173 -6 20 -16 36 -22 35 -6 0 -100 -37 -209 -82z"/>
<path d="M6976 9759 c-8 -40 -122 -326 -143 -358 -18 -28 -10 -36 46 -46 20
-3 90 -32 156 -65 66 -32 136 -61 156 -65 33 -5 36 -3 52 30 23 48 22 52 -15
60 -28 6 -256 92 -267 101 -5 4 75 207 109 276 l29 58 -46 20 c-61 27 -69 25
-77 -11z"/>
<path d="M3088 9480 l-48 -30 31 -42 c17 -24 55 -82 85 -130 43 -72 50 -88 35
-88 -10 0 -100 23 -200 50 -100 28 -191 50 -202 50 -11 0 -38 -12 -60 -26
l-40 -25 23 -32 c35 -47 184 -298 192 -324 9 -30 22 -29 73 5 l43 28 -26 35
c-44 59 -147 230 -141 235 2 3 47 -7 98 -21 359 -97 325 -90 369 -70 22 10 40
22 40 26 0 5 -45 84 -100 176 -56 93 -103 178 -106 191 -8 28 -9 28 -66 -8z"/>
<path d="M7704 9402 c-44 -40 -222 -155 -303 -196 -27 -14 -52 -30 -56 -35 -6
-10 72 -61 93 -61 6 0 28 11 48 25 20 14 43 25 50 25 16 0 202 -108 211 -123
3 -6 5 -34 4 -63 l-2 -53 48 -30 48 -30 7 137 c9 153 24 316 33 347 5 17 -5
27 -59 58 -36 20 -69 37 -73 37 -4 0 -26 -17 -49 -38z m65 -173 c-6 -51 -12
-95 -13 -96 -4 -4 -136 78 -135 85 0 6 151 109 156 107 1 -1 -2 -44 -8 -96z"/>
<path d="M5339 8995 c-33 -18 -426 -506 -434 -537 -4 -20 -43 -738 -90 -1688
-8 -168 -20 -390 -25 -495 -6 -104 -26 -496 -45 -870 -19 -374 -37 -723 -40
-775 -14 -243 -25 -478 -25 -512 l0 -37 -191 -3 -190 -3 -40 -42 -39 -42 0
-230 0 -230 -451 -1 c-339 0 -458 -3 -477 -13 -64 -30 -89 -118 -54 -187 35
-71 24 -70 620 -70 588 0 573 -2 612 63 18 29 20 51 20 254 l0 222 228 3 c125
2 534 2 910 0 l683 -2 -3 -133 -3 -132 -666 -5 c-649 -5 -668 -6 -689 -25 -73
-66 -62 -186 20 -227 33 -17 117 -18 1326 -18 1284 0 1291 0 1375 21 103 26
210 81 300 154 128 104 169 95 -448 96 -296 0 -629 0 -740 -1 l-203 -1 0 228
c0 205 -2 231 -19 259 -34 56 -68 64 -265 64 l-176 0 0 48 c0 26 -5 126 -10
222 -9 162 -43 816 -55 1060 -3 58 -9 188 -15 290 -5 102 -14 275 -20 385 -6
110 -13 241 -15 290 -3 50 -14 270 -25 490 -35 697 -50 988 -55 1070 -3 44
-10 177 -16 295 -6 118 -15 225 -20 238 -15 39 -400 512 -430 527 -35 19 -86
19 -120 0z m179 -480 c130 -160 114 -92 137 -590 8 -181 17 -368 20 -415 3
-47 12 -224 20 -395 8 -170 17 -348 20 -395 3 -47 16 -312 30 -590 13 -278 27
-541 30 -585 3 -44 18 -354 35 -690 16 -335 32 -647 35 -692 l5 -83 -446 0
-447 0 7 163 c4 89 11 243 16 342 27 493 34 626 90 1750 43 848 81 1598 90
1775 5 102 10 201 10 220 0 30 18 58 111 178 60 78 114 142 119 142 4 0 58
-61 118 -135z"/>
<path d="M2271 8912 l-54 -48 22 -59 c22 -64 91 -360 91 -394 0 -33 13 -31 58
7 l42 37 -15 49 c-8 27 -15 53 -15 57 0 10 187 169 200 169 5 0 30 -9 55 -21
44 -21 44 -21 72 -1 15 11 36 29 46 40 17 19 17 20 -34 37 -29 9 -71 25 -93
35 -23 10 -85 35 -139 55 -54 21 -113 48 -133 61 -19 13 -38 24 -42 24 -4 0
-31 -22 -61 -48z m154 -107 c39 -16 73 -32 78 -35 9 -7 -105 -110 -122 -110
-6 0 -11 10 -11 23 0 12 -9 51 -20 87 -23 76 -24 86 -7 73 6 -5 44 -23 82 -38z"/>
<path d="M8441 8828 c-60 -13 -132 -85 -150 -151 -36 -129 65 -289 238 -376
l43 -23 34 36 c37 39 40 46 22 46 -7 0 -35 11 -63 24 -124 57 -211 197 -171
274 35 68 111 91 191 58 51 -22 118 -89 145 -145 13 -28 26 -51 29 -51 3 0 21
14 39 31 l34 30 -34 56 c-82 137 -233 218 -357 191z"/>
<path d="M1855 8483 c-16 -9 -41 -28 -56 -42 -43 -40 -220 -254 -217 -261 2
-4 39 -36 84 -72 97 -78 132 -108 199 -170 l52 -48 24 28 c54 60 55 55 -16
107 -36 27 -65 51 -65 55 0 15 59 87 85 104 24 16 40 17 125 11 94 -6 98 -6
127 19 17 14 36 40 44 57 12 31 12 33 -26 66 -41 36 -58 42 -49 18 4 -8 -1
-26 -10 -40 -14 -22 -24 -25 -72 -25 -30 0 -70 -6 -88 -14 l-34 -14 19 33 c31
53 40 95 28 132 -21 66 -90 91 -154 56z m83 -105 c19 -19 14 -52 -14 -94 -15
-21 -29 -41 -33 -44 -3 -3 -26 -29 -50 -57 l-43 -53 -44 36 c-28 24 -41 41
-36 49 4 7 40 50 80 94 58 63 80 81 101 81 15 0 32 -5 39 -12z"/>
<path d="M8975 8367 c-51 -55 -270 -237 -286 -237 -18 0 -8 -26 25 -65 l35
-40 48 46 c49 47 217 187 268 225 l29 20 -34 42 c-19 23 -39 42 -45 42 -5 0
-24 -15 -40 -33z"/>
<path d="M9141 8019 c-144 -101 -161 -120 -174 -187 -18 -90 54 -229 145 -281
72 -42 125 -41 204 0 32 18 61 35 64 39 6 8 136 87 153 93 10 3 -48 97 -60 97
-4 0 -14 -6 -22 -14 -9 -8 -54 -40 -101 -71 -127 -86 -198 -87 -253 -3 -35 55
-37 124 -4 159 28 31 106 85 179 124 l58 31 -30 47 c-16 26 -33 47 -37 46 -5
0 -59 -36 -122 -80z"/>
<path d="M1363 7873 c-22 -38 -73 -122 -112 -187 -56 -91 -69 -121 -59 -127 7
-5 17 -9 21 -9 13 0 215 -119 285 -168 l64 -44 16 23 c34 48 212 348 212 358
0 5 -14 21 -32 35 l-32 25 -36 -64 c-90 -163 -136 -234 -150 -234 -8 0 -28 10
-44 23 l-29 24 66 111 c37 61 67 114 67 118 0 9 -57 43 -71 43 -5 0 -9 -4 -9
-9 0 -12 -103 -185 -112 -189 -5 -2 -8 -10 -8 -18 0 -8 -3 -14 -6 -14 -5 0
-64 33 -82 46 -5 3 139 237 161 261 11 13 19 25 16 27 -4 3 -79 36 -83 36 -1
0 -20 -30 -43 -67z"/>
<path d="M9640 7421 c-28 -21 -311 -146 -352 -156 l-27 -7 18 -46 c48 -121
121 -260 152 -290 46 -45 100 -72 146 -72 58 0 131 31 172 72 62 62 76 145 41
246 -25 72 -113 272 -120 271 -3 0 -16 -8 -30 -18z m47 -235 c13 -33 23 -77
23 -99 0 -141 -182 -175 -251 -47 -19 37 -69 142 -69 146 0 3 22 14 155 73
l90 40 14 -27 c8 -15 25 -54 38 -86z"/>
<path d="M1092 7279 c-24 -12 -54 -36 -68 -54 -23 -30 -144 -311 -144 -334 0
-6 9 -11 19 -11 21 0 267 -98 344 -137 27 -13 50 -23 51 -21 1 2 10 24 20 50
19 50 15 68 -12 68 -9 1 -55 16 -102 34 l-84 33 41 6 c116 19 199 187 145 294
-41 79 -134 111 -210 72z m104 -102 c22 -20 27 -32 27 -69 -1 -56 -21 -95 -68
-137 -28 -24 -45 -31 -78 -31 -24 0 -51 6 -61 13 -16 12 -15 18 14 97 33 92
42 107 80 133 33 23 54 21 86 -6z"/>
<path d="M9520 6646 c0 -9 5 -36 12 -60 11 -42 13 -44 57 -50 25 -4 52 -10 59
-14 7 -5 24 -51 39 -103 40 -146 40 -140 -6 -182 -23 -20 -41 -44 -41 -53 0
-27 23 -95 30 -92 7 3 85 72 231 205 44 40 122 98 146 108 1 1 -2 17 -7 36 -5
19 -14 53 -20 77 -10 40 -13 42 -48 42 -30 0 -366 74 -434 96 -12 3 -18 0 -18
-10z m348 -168 c39 -7 72 -16 72 -20 0 -5 -4 -8 -9 -8 -6 0 -37 -25 -71 -56
-33 -31 -63 -54 -66 -52 -4 5 -44 142 -44 154 0 4 10 3 23 0 12 -4 55 -12 95
-18z"/>
<path d="M772 6536 c-73 -147 -80 -299 -17 -362 18 -18 35 -24 69 -24 39 0 50
5 80 36 19 20 49 70 67 113 58 140 77 171 104 171 33 0 41 -36 28 -115 -13
-75 -47 -156 -89 -211 l-33 -43 47 -16 c55 -18 56 -18 102 82 68 146 85 286
42 355 -28 45 -78 65 -124 49 -52 -18 -81 -62 -137 -207 -35 -91 -59 -119 -90
-109 -45 14 -17 171 48 277 l29 47 -30 10 c-54 19 -62 14 -96 -53z"/>
<path d="M1833 6379 c-1 -12 3 -16 13 -12 18 6 18 19 1 26 -7 3 -13 -3 -14
-14z"/>
<path d="M10088 5965 c-7 -8 -350 -37 -370 -32 -10 3 -21 1 -24 -4 -3 -6 2
-80 11 -167 18 -165 32 -210 84 -265 40 -44 76 -58 150 -59 78 0 131 22 174
73 50 60 59 149 38 349 -6 52 -11 98 -11 103 0 8 -44 10 -52 2z m-24 -152 c10
-63 6 -177 -7 -203 -7 -13 -28 -35 -46 -47 -65 -44 -146 -21 -182 50 -18 34
-47 203 -37 213 6 5 158 21 219 23 46 1 46 1 53 -36z"/>
<path d="M636 5908 c-4 -14 -36 -381 -36 -410 0 -15 9 -18 48 -18 56 0 341
-27 374 -35 l24 -6 17 193 c25 279 27 261 -34 273 l-36 7 -6 -124 c-4 -68 -10
-147 -13 -176 l-7 -53 -46 3 c-52 3 -49 -9 -37 133 4 44 9 95 13 113 5 30 4
32 -25 32 -17 0 -37 2 -45 6 -11 4 -16 -21 -27 -134 l-13 -139 -46 5 c-25 2
-46 5 -47 6 -3 4 26 300 31 316 6 18 2 20 -40 20 -28 0 -47 -5 -49 -12z"/>
<path d="M2285 5250 c-3 -5 -1 -10 4 -10 6 0 11 5 11 10 0 6 -2 10 -4 10 -3 0
-8 -4 -11 -10z"/>
<path d="M819 5081 c-22 -18 -23 -22 -21 -191 5 -479 100 -976 283 -1478 88
-240 261 -595 387 -792 136 -212 242 -363 334 -475 202 -246 434 -485 612
-630 27 -22 54 -44 60 -50 113 -102 347 -267 571 -402 545 -327 1180 -541
1835 -618 185 -22 654 -31 855 -16 508 37 1076 176 1500 366 28 12 61 26 75
30 14 4 27 10 30 14 3 3 54 30 114 59 61 30 174 91 252 137 221 129 377 237
605 417 131 104 123 99 131 78 4 -11 10 -20 13 -20 4 0 3 5 0 10 -3 6 1 13 10
16 12 5 13 9 4 20 -10 12 13 39 122 147 129 126 234 236 309 323 214 248 440
582 599 889 310 595 499 1340 505 1981 1 163 1 166 -23 185 -32 26 -67 24 -96
-6 -23 -22 -25 -31 -25 -122 0 -142 -17 -367 -40 -528 -25 -172 -58 -353 -69
-380 -5 -11 -13 -42 -18 -70 -33 -164 -116 -421 -217 -670 -82 -202 -327 -657
-417 -774 -11 -14 -52 -71 -91 -126 -211 -294 -513 -610 -838 -874 -91 -74
-82 -67 -225 -167 -236 -164 -441 -281 -697 -398 -32 -14 -82 -37 -112 -51
-133 -61 -475 -174 -676 -224 -337 -83 -862 -142 -1120 -126 -47 2 -145 7
-218 10 -360 16 -805 103 -1172 230 -111 39 -295 113 -345 139 -16 9 -34 16
-38 16 -15 0 -180 83 -327 163 -624 343 -1186 865 -1575 1460 -126 195 -297
510 -355 657 -10 26 -28 67 -39 91 -98 214 -232 683 -272 954 -6 39 -15 97
-20 130 -17 114 -39 390 -39 503 0 80 -4 121 -15 141 -23 45 -67 54 -106 22z"/>
<path d="M2630 2620 l0 -430 2859 0 c1891 0 2860 3 2863 10 2 5 2 199 0 430
l-2 420 -2860 0 -2860 0 0 -430z m2363 259 c15 -19 17 -48 18 -253 1 -290 3
-277 -27 -303 -34 -31 -120 -32 -158 -2 l-26 20 0 258 c0 316 0 315 125 305
36 -2 55 -10 68 -25z m480 2 c18 -18 23 -36 25 -101 4 -75 3 -80 -17 -81 -12
-1 -27 -2 -33 -3 -9 -1 -15 22 -18 69 l-5 70 -35 0 -35 0 -3 -142 -3 -143 60
0 c91 0 91 0 91 -90 0 -135 -27 -168 -132 -158 -64 7 -88 32 -88 93 0 37 3 43
23 47 36 7 47 -1 47 -38 0 -33 1 -34 40 -34 l40 0 0 55 0 55 -75 0 -75 0 0
184 c0 101 3 192 6 201 18 47 146 58 187 16z m2599 -1 c14 -17 18 -40 18 -101
l0 -79 -30 0 c-30 0 -30 1 -30 54 0 75 -6 86 -45 86 -21 0 -35 -6 -39 -16 -3
-9 -6 -74 -6 -145 l0 -129 69 0 c40 0 73 -5 77 -11 3 -6 6 -52 5 -102 -1 -85
-3 -94 -27 -114 -34 -31 -120 -32 -158 -2 -22 17 -26 29 -26 68 0 56 3 60 35
54 18 -4 25 -12 27 -37 3 -27 7 -31 37 -34 41 -4 51 8 51 66 l0 42 -75 0 -75
0 0 184 c0 101 3 192 6 201 19 48 151 58 186 15z m-4998 9 c46 -21 50 -59 38
-374 0 -5 2 -44 4 -86 5 -74 5 -77 -22 -98 -24 -19 -38 -21 -108 -19 l-81 3
-3 280 c-1 154 0 285 3 292 6 17 134 18 169 2z m384 -256 l2 -263 40 0 40 0 0
266 0 265 33 -3 32 -3 3 -260 c1 -170 -1 -269 -9 -286 -13 -34 -48 -49 -110
-49 -41 0 -54 5 -74 26 l-25 27 0 274 0 274 33 -3 32 -3 3 -262z m592 232 l0
-35 -50 0 -51 0 3 -142 3 -143 38 3 c36 3 37 3 37 -32 0 -35 -1 -36 -40 -36
l-40 0 0 -50 0 -50 50 0 50 0 0 -35 0 -36 -82 3 -83 3 -3 280 c-1 154 0 285 3
292 3 9 29 13 85 13 l80 0 0 -35z m324 18 c2 -10 22 -88 43 -173 l38 -155 5
170 5 170 33 3 32 3 0 -296 0 -296 -31 3 -32 3 -41 165 -41 165 -3 -167 -2
-168 -35 0 -35 0 0 295 0 295 29 0 c20 0 31 -6 35 -17z m1900 -5 c5 -24 76
-548 76 -561 0 -16 -75 -2 -77 13 -1 8 -5 45 -8 83 -6 65 -7 67 -34 67 -28 0
-28 -1 -37 -82 l-9 -83 -38 -3 -39 -3 6 38 c3 21 13 92 21 158 56 436 46 395
95 395 33 0 40 -4 44 -22z m406 -273 l0 -295 -30 0 -30 0 0 295 0 295 30 0 30
0 0 -295z m480 270 c20 -18 21 -28 22 -205 0 -102 1 -223 2 -270 l1 -85 -32
-3 -32 -3 -3 83 -3 83 -42 3 -43 3 0 -86 0 -86 -32 3 -33 3 -3 270 c-1 149 0
281 3 294 6 22 9 23 89 20 66 -3 89 -8 106 -24z m460 -10 l0 -35 -50 0 -50 0
0 -140 0 -140 40 0 c39 0 40 -1 40 -35 0 -34 -1 -35 -40 -35 l-40 0 0 -50 0
-50 50 0 50 0 0 -35 0 -36 -82 3 -83 3 -3 280 c-1 154 0 285 3 292 3 9 29 13
85 13 l80 0 0 -35z"/>
<path d="M4865 2818 c-3 -13 -4 -117 -3 -233 l3 -210 40 0 40 0 0 230 0 230
-37 3 c-32 3 -38 0 -43 -20z"/>
<path d="M2970 2691 l0 -141 40 0 41 0 -3 138 -3 137 -37 3 -38 3 0 -140z"/>
<path d="M2970 2431 l0 -51 41 0 40 0 -3 48 c-3 47 -3 47 -40 50 l-38 3 0 -50z"/>
<path d="M6220 2688 c0 -18 -3 -57 -6 -85 -6 -50 -6 -53 16 -53 22 0 22 3 16
53 -3 28 -6 67 -6 85 0 17 -4 32 -10 32 -5 0 -10 -15 -10 -32z"/>
<path d="M7030 2689 l0 -140 43 3 42 3 3 115 c4 153 2 160 -48 160 l-40 0 0
-141z"/>
<path d="M8498 1558 c5 -17 7 -19 10 -7 2 14 8 15 35 5 18 -6 46 -21 61 -34
16 -12 31 -20 34 -17 5 5 -37 42 -72 62 -12 7 -33 12 -48 13 -22 0 -25 -3 -20
-22z"/>
<path d="M8530 1511 c0 -5 10 -11 23 -15 38 -10 43 -7 13 9 -33 17 -36 18 -36
6z"/>
<path d="M8636 1477 c3 -10 9 -15 12 -12 3 3 0 11 -7 18 -10 9 -11 8 -5 -6z"/>
<path d="M10440 705 c0 -2 19 -14 43 -25 l42 -20 -28 25 c-25 22 -57 33 -57
20z"/>
<path d="M10433 645 c0 -30 16 -43 27 -24 9 14 -5 49 -19 49 -5 0 -8 -11 -8
-25z"/>
<path d="M10487 594 c-9 -10 4 -34 19 -34 16 0 16 2 8 24 -6 17 -16 20 -27 10z"/>
<path d="M10447 563 c-9 -2 -15 -9 -12 -14 9 -14 22 -11 29 6 3 8 4 14 3 14
-1 -1 -10 -3 -20 -6z"/>
</g>
</svg>
